<?xml version="1.0"?>
<svg xmlns="http://www.w3.org/2000/svg" xmlns:xlink="http://www.w3.org/1999/xlink" xmlns:svgjs="http://svgjs.com/svgjs" version="1.1" width="512" height="512" x="0" y="0" viewBox="0 0 512 512" style="enable-background:new 0 0 512 512" xml:space="preserve" class=""><g><path xmlns="http://www.w3.org/2000/svg" d="M74.782,232a8,8,0,0,1-7.889-9.383A192.259,192.259,0,0,1,222.618,66.893a8,8,0,1,1,2.764,15.76A176.212,176.212,0,0,0,82.653,225.382,8,8,0,0,1,74.782,232Z" fill="#083e9e" data-original="#000000" style="" class=""/><path xmlns="http://www.w3.org/2000/svg" d="M287.99,445.229a8,8,0,0,1-1.372-15.882,176.214,176.214,0,0,0,142.73-142.729,8,8,0,1,1,15.759,2.764A192.259,192.259,0,0,1,289.382,445.107,8.051,8.051,0,0,1,287.99,445.229Z" fill="#083e9e" data-original="#000000" style="" class=""/><circle xmlns="http://www.w3.org/2000/svg" cx="72" cy="256" r="8" fill="#083e9e" data-original="#000000" style="" class=""/><circle xmlns="http://www.w3.org/2000/svg" cx="256" cy="72" r="8" fill="#083e9e" data-original="#000000" style="" class=""/><circle xmlns="http://www.w3.org/2000/svg" cx="440" cy="256" r="8" fill="#083e9e" data-original="#000000" style="" class=""/><circle xmlns="http://www.w3.org/2000/svg" cx="256" cy="440" r="8" fill="#083e9e" data-original="#000000" style="" class=""/><path xmlns="http://www.w3.org/2000/svg" d="M256,496A240,240,0,0,1,86.294,86.294,240,240,0,1,1,425.705,425.706,238.426,238.426,0,0,1,256,496Zm0-464A224,224,0,0,0,97.608,414.392,224,224,0,0,0,414.392,97.608,222.535,222.535,0,0,0,256,32Z" fill="#083e9e" data-original="#000000" style="" class=""/><path xmlns="http://www.w3.org/2000/svg" d="M264.955,280l48.8,61A8,8,0,0,0,328,336V280h32a8,8,0,0,0,0-16H328V248h32a8,8,0,0,0,0-16H328V176a8,8,0,0,0-16,0v56H247.045l-48.8-61A8,8,0,0,0,184,176v56H152a8,8,0,0,0,0,16h32v16H152a8,8,0,0,0,0,16h32v56a8,8,0,0,0,16,0V280ZM312,313.194,285.445,280H312ZM312,248v16H272.645l-12.8-16ZM200,198.806,226.555,232H200ZM200,248h39.355l12.8,16H200Z" fill="#083e9e" data-original="#000000" style="" class=""/></g></svg>
